<svg width="64" height="64" viewBox="0 0 64 64" fill="none" xmlns="http://www.w3.org/2000/svg">
  <defs>
    <filter id="glow" x="-20%" y="-20%" width="140%" height="140%">
      <feGaussianBlur stdDeviation="2" result="blur" />
      <feComposite in="SourceGraphic" in2="blur" operator="over" />
    </filter>
    <linearGradient id="neonGradient" x1="0%" y1="0%" x2="100%" y2="100%">
      <stop offset="0%" stop-color="#3b82f6" />
      <stop offset="100%" stop-color="#06b6d4" />
    </linearGradient>
  </defs>
  
  <!-- Shadow/Dark BG -->
  <rect width="64" height="64" rx="16" fill="#070b14"/>
  
  <!-- Document Shape -->
  <path d="M18 14C18 12.8954 18.8954 12 20 12H38L46 20V50C46 51.1046 45.1046 52 44 52H20C18.8954 52 18 51.1046 18 50V14Z" 
        stroke="url(#neonGradient)" 
        stroke-width="1.8" 
        fill="#1e293b" 
        fill-opacity="0.2" 
        filter="url(#glow)"/>
        
  <!-- Folded Corner -->
  <path d="M38 12V18C38 19.1046 38.8954 20 40 20H46" 
        stroke="url(#neonGradient)" 
        stroke-width="1.8" 
        fill="none"/>

  <!-- Sparkle -->
  <path d="M26 22L27 24L29 25L27 26L26 28L25 26L23 25L25 24L26 22Z" 
        fill="#3b82f6" 
        filter="url(#glow)"/>

  <!-- Wave line -->
  <path d="M14 36C18 32 24 40 30 36C36 32 42 40 46 36" 
        stroke="#3b82f6" 
        stroke-width="2.5" 
        stroke-linecap="round" 
        filter="url(#glow)"/>
        
  <!-- Lightbulb node -->
  <circle cx="48" cy="36" r="3" fill="#06b6d4" filter="url(#glow)"/>
</svg>
